<?xml version="1.0" encoding="UTF-8"?>
<svg xmlns="http://www.w3.org/2000/svg" xmlns:xlink="http://www.w3.org/1999/xlink" width="13pt" height="13pt" viewBox="0 0 13 13" version="1.1">
<g id="surface1">
<path style=" stroke:none;fill-rule:nonzero;fill:rgb(255,255,255);fill-opacity:1;" d="M 9.929688 6.382812 L 10.835938 6.382812 C 11.039062 6.382812 11.207031 6.21875 11.207031 6.011719 L 11.207031 5.105469 C 11.207031 4.902344 11.039062 4.734375 10.835938 4.734375 L 9.929688 4.734375 C 9.722656 4.734375 9.554688 4.902344 9.554688 5.105469 L 9.554688 6.011719 C 9.554688 6.21875 9.722656 6.382812 9.929688 6.382812 Z M 9.9375 5.113281 L 10.824219 5.113281 L 10.824219 6.003906 L 9.9375 6.003906 Z M 9.929688 8.796875 L 10.835938 8.796875 C 11.039062 8.796875 11.207031 8.628906 11.207031 8.425781 L 11.207031 7.519531 C 11.207031 7.3125 11.039062 7.144531 10.835938 7.144531 L 9.929688 7.144531 C 9.722656 7.144531 9.554688 7.3125 9.554688 7.519531 L 9.554688 8.425781 C 9.554688 8.628906 9.722656 8.796875 9.929688 8.796875 Z M 9.9375 7.527344 L 10.824219 7.527344 L 10.824219 8.414062 L 9.9375 8.414062 Z M 7.339844 6.382812 L 8.246094 6.382812 C 8.453125 6.382812 8.617188 6.21875 8.617188 6.011719 L 8.617188 5.105469 C 8.617188 4.902344 8.453125 4.734375 8.246094 4.734375 L 7.339844 4.734375 C 7.136719 4.734375 6.96875 4.902344 6.96875 5.105469 L 6.96875 6.011719 C 6.96875 6.21875 7.136719 6.382812 7.339844 6.382812 Z M 7.347656 5.113281 L 8.238281 5.113281 L 8.238281 6.003906 L 7.347656 6.003906 Z M 3.070312 9.445312 L 2.164062 9.445312 C 1.960938 9.445312 1.792969 9.613281 1.792969 9.816406 L 1.792969 10.722656 C 1.792969 10.929688 1.960938 11.09375 2.164062 11.09375 L 3.070312 11.09375 C 3.277344 11.09375 3.445312 10.929688 3.445312 10.722656 L 3.445312 9.816406 C 3.445312 9.613281 3.277344 9.445312 3.070312 9.445312 Z M 3.0625 10.714844 L 2.175781 10.714844 L 2.175781 9.828125 L 3.0625 9.828125 Z M 3.070312 4.734375 L 2.164062 4.734375 C 1.960938 4.734375 1.792969 4.902344 1.792969 5.105469 L 1.792969 6.011719 C 1.792969 6.21875 1.960938 6.382812 2.164062 6.382812 L 3.070312 6.382812 C 3.277344 6.382812 3.445312 6.21875 3.445312 6.011719 L 3.445312 5.105469 C 3.445312 4.902344 3.277344 4.734375 3.070312 4.734375 Z M 3.0625 6.003906 L 2.175781 6.003906 L 2.175781 5.113281 L 3.0625 5.113281 Z M 7.339844 8.738281 L 8.246094 8.738281 C 8.453125 8.738281 8.617188 8.574219 8.617188 8.367188 L 8.617188 7.460938 C 8.617188 7.257812 8.453125 7.089844 8.246094 7.089844 L 7.339844 7.089844 C 7.136719 7.089844 6.96875 7.257812 6.96875 7.460938 L 6.96875 8.367188 C 6.96875 8.574219 7.136719 8.738281 7.339844 8.738281 Z M 7.347656 7.46875 L 8.238281 7.46875 L 8.238281 8.359375 L 7.347656 8.359375 Z M 11.394531 0.871094 L 10.582031 0.871094 L 10.582031 0.578125 C 10.582031 0.261719 10.320312 0 10.003906 0 L 9.914062 0 C 9.597656 0 9.335938 0.261719 9.335938 0.578125 L 9.335938 0.871094 L 3.664062 0.871094 L 3.664062 0.578125 C 3.664062 0.261719 3.402344 0 3.085938 0 L 2.996094 0 C 2.679688 0 2.417969 0.261719 2.417969 0.578125 L 2.417969 0.871094 L 1.605469 0.871094 C 1.078125 0.871094 0.652344 1.296875 0.652344 1.824219 L 0.652344 12.046875 C 0.652344 12.574219 1.078125 13 1.601562 13 L 11.398438 13 C 11.921875 13 12.347656 12.574219 12.347656 12.046875 L 12.347656 1.824219 C 12.347656 1.296875 11.921875 0.871094 11.394531 0.871094 Z M 9.71875 0.578125 C 9.71875 0.46875 9.804688 0.382812 9.914062 0.382812 L 10.003906 0.382812 C 10.113281 0.382812 10.199219 0.46875 10.199219 0.578125 L 10.199219 0.871094 L 9.71875 0.871094 Z M 2.800781 0.578125 C 2.800781 0.46875 2.886719 0.382812 2.996094 0.382812 L 3.085938 0.382812 C 3.195312 0.382812 3.28125 0.46875 3.28125 0.578125 L 3.28125 0.871094 L 2.800781 0.871094 Z M 11.96875 12.046875 C 11.96875 12.363281 11.710938 12.617188 11.398438 12.617188 L 1.601562 12.617188 C 1.289062 12.617188 1.03125 12.363281 1.03125 12.046875 C 1.191406 12.167969 1.390625 12.238281 1.605469 12.238281 L 9.324219 12.238281 C 9.578125 12.238281 9.820312 12.140625 10 11.960938 L 11.96875 9.988281 Z M 9.804688 11.613281 C 9.820312 11.554688 9.828125 11.488281 9.828125 11.421875 L 9.828125 10.152344 C 9.828125 9.910156 10.023438 9.71875 10.261719 9.71875 L 11.535156 9.71875 C 11.601562 9.71875 11.664062 9.707031 11.726562 9.695312 Z M 11.96875 3.589844 L 3.855469 3.589844 C 3.75 3.589844 3.664062 3.675781 3.664062 3.78125 C 3.664062 3.886719 3.75 3.972656 3.855469 3.972656 L 11.96875 3.972656 L 11.96875 8.902344 C 11.96875 9.140625 11.773438 9.335938 11.535156 9.335938 L 10.261719 9.335938 C 9.8125 9.335938 9.445312 9.703125 9.445312 10.152344 L 9.445312 11.421875 C 9.445312 11.664062 9.253906 11.859375 9.011719 11.859375 L 1.605469 11.859375 C 1.289062 11.859375 1.03125 11.601562 1.03125 11.285156 L 1.03125 3.972656 L 3.09375 3.972656 C 3.199219 3.972656 3.28125 3.886719 3.28125 3.78125 C 3.28125 3.675781 3.199219 3.589844 3.09375 3.589844 L 1.03125 3.589844 L 1.03125 1.824219 C 1.03125 1.507812 1.289062 1.25 1.605469 1.25 L 2.417969 1.25 L 2.417969 1.8125 C 2.417969 2.128906 2.679688 2.390625 2.996094 2.390625 C 3.101562 2.390625 3.1875 2.304688 3.1875 2.199219 C 3.1875 2.09375 3.101562 2.007812 2.996094 2.007812 C 2.886719 2.007812 2.800781 1.921875 2.800781 1.8125 L 2.800781 1.25 L 9.335938 1.25 L 9.335938 1.8125 C 9.335938 2.128906 9.597656 2.390625 9.914062 2.390625 C 10.019531 2.390625 10.105469 2.304688 10.105469 2.199219 C 10.105469 2.09375 10.019531 2.007812 9.914062 2.007812 C 9.804688 2.007812 9.71875 1.921875 9.71875 1.8125 L 9.71875 1.25 L 11.394531 1.25 C 11.710938 1.25 11.96875 1.507812 11.96875 1.824219 Z M 3.070312 7.089844 L 2.164062 7.089844 C 1.960938 7.089844 1.792969 7.257812 1.792969 7.460938 L 1.792969 8.367188 C 1.792969 8.574219 1.960938 8.738281 2.164062 8.738281 L 3.070312 8.738281 C 3.277344 8.738281 3.445312 8.574219 3.445312 8.367188 L 3.445312 7.460938 C 3.445312 7.257812 3.277344 7.089844 3.070312 7.089844 Z M 3.0625 8.359375 L 2.175781 8.359375 L 2.175781 7.46875 L 3.0625 7.46875 Z M 4.753906 6.382812 L 5.660156 6.382812 C 5.863281 6.382812 6.03125 6.21875 6.03125 6.011719 L 6.03125 5.105469 C 6.03125 4.902344 5.863281 4.734375 5.660156 4.734375 L 4.753906 4.734375 C 4.546875 4.734375 4.382812 4.902344 4.382812 5.105469 L 4.382812 6.011719 C 4.382812 6.21875 4.546875 6.382812 4.753906 6.382812 Z M 4.761719 5.113281 L 5.652344 5.113281 L 5.652344 6.003906 L 4.761719 6.003906 Z M 7.347656 10.714844 C 7.34375 10.613281 7.261719 10.535156 7.160156 10.535156 C 7.054688 10.535156 6.96875 10.617188 6.96875 10.722656 C 6.96875 10.929688 7.136719 11.09375 7.339844 11.09375 L 8.246094 11.09375 C 8.453125 11.09375 8.617188 10.929688 8.617188 10.722656 L 8.617188 9.816406 C 8.617188 9.613281 8.453125 9.445312 8.246094 9.445312 L 7.339844 9.445312 C 7.136719 9.445312 6.96875 9.613281 6.96875 9.816406 L 6.96875 10.078125 C 6.96875 10.183594 7.054688 10.269531 7.160156 10.269531 C 7.265625 10.269531 7.347656 10.183594 7.347656 10.078125 L 7.347656 9.828125 L 8.238281 9.828125 L 8.238281 10.714844 Z M 4.753906 8.738281 L 5.660156 8.738281 C 5.863281 8.738281 6.03125 8.574219 6.03125 8.367188 L 6.03125 7.460938 C 6.03125 7.257812 5.863281 7.089844 5.660156 7.089844 L 4.753906 7.089844 C 4.546875 7.089844 4.382812 7.257812 4.382812 7.460938 L 4.382812 8.367188 C 4.382812 8.574219 4.546875 8.738281 4.753906 8.738281 Z M 4.761719 7.46875 L 5.652344 7.46875 L 5.652344 8.359375 L 4.761719 8.359375 Z M 4.753906 11.09375 L 5.660156 11.09375 C 5.863281 11.09375 6.03125 10.929688 6.03125 10.722656 L 6.03125 9.816406 C 6.03125 9.613281 5.863281 9.445312 5.660156 9.445312 L 4.753906 9.445312 C 4.546875 9.445312 4.382812 9.613281 4.382812 9.816406 L 4.382812 10.722656 C 4.382812 10.929688 4.546875 11.09375 4.753906 11.09375 Z M 4.761719 9.824219 L 5.652344 9.824219 L 5.652344 10.714844 L 4.761719 10.714844 Z M 4.761719 9.824219 "/>
</g>
</svg>
