<?xml version="1.0" encoding="UTF-8"?>
<svg xmlns="http://www.w3.org/2000/svg" xmlns:xlink="http://www.w3.org/1999/xlink" width="13pt" height="13pt" viewBox="0 0 13 13" version="1.1">
<g id="surface1">
<path style=" stroke:none;fill-rule:nonzero;fill:rgb(255,255,255);fill-opacity:1;" d="M 11.097656 8.402344 C 10.386719 7.695312 9.546875 7.171875 8.625 6.855469 C 9.609375 6.175781 10.257812 5.042969 10.257812 3.757812 C 10.257812 1.6875 8.570312 0 6.5 0 C 4.429688 0 2.742188 1.6875 2.742188 3.757812 C 2.742188 5.042969 3.390625 6.175781 4.375 6.855469 C 3.453125 7.171875 2.613281 7.695312 1.902344 8.402344 C 0.675781 9.632812 0 11.265625 0 13 L 1.015625 13 C 1.015625 9.976562 3.476562 7.515625 6.5 7.515625 C 9.523438 7.515625 11.984375 9.976562 11.984375 13 L 13 13 C 13 11.265625 12.324219 9.632812 11.097656 8.402344 Z M 6.5 6.5 C 4.988281 6.5 3.757812 5.269531 3.757812 3.757812 C 3.757812 2.246094 4.988281 1.015625 6.5 1.015625 C 8.011719 1.015625 9.242188 2.246094 9.242188 3.757812 C 9.242188 5.269531 8.011719 6.5 6.5 6.5 Z M 6.5 6.5 "/>
</g>
</svg>
