<?xml version="1.0" encoding="UTF-8"?>
<svg  width="20pt" height="20pt" viewBox="0 0 20 20" version="1.1">
<g id="surface1">
<path style=" stroke:none;fill-rule:nonzero;fill:rgb(0%,0%,0%);fill-opacity:1;" d="M 14.167969 0.929688 C 13.238281 0.929688 12.347656 1.144531 11.519531 1.566406 C 10.957031 1.851562 10.441406 2.234375 10 2.6875 C 9.558594 2.234375 9.042969 1.851562 8.480469 1.566406 C 7.652344 1.144531 6.761719 0.929688 5.832031 0.929688 C 2.617188 0.929688 0 3.546875 0 6.761719 C 0 9.039062 1.203125 11.457031 3.574219 13.949219 C 5.554688 16.03125 7.980469 17.765625 9.664062 18.851562 L 10 19.070312 L 10.335938 18.851562 C 12.019531 17.765625 14.445312 16.03125 16.425781 13.949219 C 18.796875 11.457031 20 9.039062 20 6.761719 C 20 3.546875 17.382812 0.929688 14.167969 0.929688 Z M 15.53125 13.09375 C 13.757812 14.957031 11.605469 16.535156 10 17.59375 C 8.394531 16.535156 6.242188 14.957031 4.46875 13.09375 C 2.324219 10.839844 1.238281 8.710938 1.238281 6.761719 C 1.238281 4.226562 3.296875 2.167969 5.832031 2.167969 C 7.289062 2.167969 8.628906 2.835938 9.503906 4.003906 L 10 4.664062 L 10.496094 4.003906 C 11.371094 2.835938 12.710938 2.167969 14.167969 2.167969 C 16.703125 2.167969 18.761719 4.226562 18.761719 6.761719 C 18.761719 8.710938 17.675781 10.839844 15.53125 13.09375 Z M 15.53125 13.09375 "/>
</g>
</svg>
