<?xml version="1.0" encoding="UTF-8"?>
<svg width="20pt" height="20pt" viewBox="0 0 20 20" version="1.1">
<g id="surface1">
<path style=" stroke:none;fill-rule:nonzero;fill:rgb(163, 187, 200%);fill-opacity:1;" d="M 19.335938 18.210938 L 14.734375 13.609375 C 15.875 12.21875 16.5625 10.4375 16.5625 8.496094 C 16.5625 4.042969 12.949219 0.429688 8.496094 0.429688 C 4.039062 0.429688 0.429688 4.042969 0.429688 8.496094 C 0.429688 12.949219 4.039062 16.5625 8.496094 16.5625 C 10.4375 16.5625 12.214844 15.878906 13.605469 14.738281 L 18.207031 19.335938 C 18.519531 19.648438 19.023438 19.648438 19.335938 19.335938 C 19.648438 19.027344 19.648438 18.519531 19.335938 18.210938 Z M 8.496094 14.957031 C 4.929688 14.957031 2.03125 12.058594 2.03125 8.496094 C 2.03125 4.933594 4.929688 2.03125 8.496094 2.03125 C 12.058594 2.03125 14.960938 4.933594 14.960938 8.496094 C 14.960938 12.058594 12.058594 14.957031 8.496094 14.957031 Z M 8.496094 14.957031 "/>
</g>
</svg>
