<?xml version="1.0" encoding="UTF-8"?>
<svg width="20pt" height="20pt" viewBox="0 0 20 20" version="1.1">
<g id="surface1">
<path style=" stroke:none;fill-rule:nonzero;fill:rgb(0%,0%,0%);fill-opacity:1;" d="M 18.144531 11.761719 L 19.570312 4.808594 L 5.519531 4.808594 L 5.03125 2.496094 L 0.796875 0.429688 L 0.429688 1.160156 L 4.296875 3.027344 L 6.25 12.355469 L 17.539062 12.355469 C 17.539062 12.355469 18.652344 13.054688 18.222656 13.9375 C 18.03125 14.210938 17.734375 14.546875 17.203125 14.546875 L 5.96875 14.546875 L 5.96875 15.351562 L 17.207031 15.351562 C 17.980469 15.351562 18.632812 14.945312 19 14.296875 C 19.71875 12.953125 18.144531 11.761719 18.144531 11.761719 Z M 6.945312 11.539062 L 5.683594 5.617188 L 18.59375 5.617188 L 17.371094 11.539062 Z M 6.945312 11.539062 "/>
<path style=" stroke:none;fill-rule:nonzero;fill:rgb(0%,0%,0%);fill-opacity:1;" d="M 8.289062 16.488281 C 7.433594 16.488281 6.742188 17.175781 6.742188 18.027344 C 6.742188 18.878906 7.433594 19.566406 8.289062 19.566406 C 9.144531 19.566406 9.835938 18.878906 9.835938 18.027344 C 9.835938 17.175781 9.144531 16.488281 8.289062 16.488281 Z M 8.289062 18.757812 C 7.882812 18.757812 7.554688 18.433594 7.554688 18.027344 C 7.554688 17.621094 7.878906 17.296875 8.289062 17.296875 C 8.699219 17.296875 9.023438 17.621094 9.023438 18.027344 C 9.023438 18.433594 8.695312 18.757812 8.289062 18.757812 Z M 8.289062 18.757812 "/>
<path style=" stroke:none;fill-rule:nonzero;fill:rgb(0%,0%,0%);fill-opacity:1;" d="M 16.597656 16.488281 C 15.742188 16.488281 15.050781 17.175781 15.050781 18.027344 C 15.050781 18.878906 15.742188 19.570312 16.597656 19.570312 C 17.453125 19.570312 18.1875 18.882812 18.144531 18.03125 C 18.144531 17.179688 17.453125 16.488281 16.597656 16.488281 Z M 17.332031 18.03125 C 17.332031 18.4375 17.007812 18.761719 16.597656 18.761719 C 16.1875 18.761719 15.863281 18.4375 15.863281 18.03125 C 15.863281 17.625 16.1875 17.300781 16.597656 17.300781 C 17.007812 17.300781 17.371094 17.625 17.332031 18.03125 Z M 17.332031 18.03125 "/>
</g>
</svg>
